<svg width="40" height="40" viewBox="0 0 40 40" fill="none" xmlns="http://www.w3.org/2000/svg">
<path d="M3.33667 20.0032C3.33861 28.2022 9.30067 35.1833 17.3983 36.4682V24.8199H13.17V20.0032H17.4033V16.3366C17.2141 14.5991 17.8075 12.8676 19.0227 11.6115C20.2379 10.3554 21.9489 9.70493 23.6917 9.83658C24.9426 9.85678 26.1903 9.96819 27.425 10.1699V14.2682H25.3183C24.5931 14.1733 23.8639 14.4128 23.3363 14.9194C22.8086 15.4259 22.5396 16.1447 22.605 16.8732V20.0032H27.2233L26.485 24.8216H22.605V36.4682C31.3625 35.0842 37.5035 27.0862 36.5792 18.2684C35.6549 9.45053 27.9888 2.89979 19.1347 3.36188C10.2806 3.82396 3.33808 11.1371 3.33667 20.0032Z" fill="#111111"/>
</svg>
